<?xml version="1.0" encoding="utf-8"?>
<!-- Generator: Adobe Illustrator 16.0.0, SVG Export Plug-In . SVG Version: 6.00 Build 0)  -->
<!DOCTYPE svg PUBLIC "-//W3C//DTD SVG 1.1//EN" "http://www.w3.org/Graphics/SVG/1.1/DTD/svg11.dtd">
<svg version="1.1" id="Layer_1" xmlns="http://www.w3.org/2000/svg" xmlns:xlink="http://www.w3.org/1999/xlink" x="0px" y="0px"
	 width="48px" height="48px" viewBox="0 0 48 48" enable-background="new 0 0 48 48" xml:space="preserve">
<g>
	<line fill="#FFFFFF" x1="0.5" y1="12" x2="0.5" y2="36"/>
	<rect y="12" fill="#272525" width="1" height="24"/>
</g>
<path d="M31.148,16c0,0-0.001,0-0.002,0H24H24h-7.146c-0.001,0-0.001,0-0.002,0C16.381,16,16,16.381,16,16.852
	c0,0.13,0.035,0.251,0.087,0.362l7.124,14.246c0.007,0.02,0.017,0.035,0.025,0.053l0.015,0.03h0.005C23.4,31.812,23.674,32,24,32
	s0.6-0.188,0.743-0.457h0.005l0.015-0.03c0.008-0.018,0.019-0.033,0.025-0.053l7.124-14.246C31.965,17.103,32,16.982,32,16.852
	C32,16.381,31.619,16,31.148,16z"/>
</svg>
