<?xml version="1.0" encoding="utf-8"?>
<!-- Generator: Adobe Illustrator 16.0.0, SVG Export Plug-In . SVG Version: 6.00 Build 0)  -->
<!DOCTYPE svg PUBLIC "-//W3C//DTD SVG 1.1//EN" "http://www.w3.org/Graphics/SVG/1.1/DTD/svg11.dtd">
<svg version="1.1" id="Layer_1" xmlns="http://www.w3.org/2000/svg" xmlns:xlink="http://www.w3.org/1999/xlink" x="0px" y="0px"
	 width="48px" height="48px" viewBox="0 0 48 48" enable-background="new 0 0 48 48" xml:space="preserve">
<path fill="#666666" d="M31.148,16h-0.002H24l0,0h-7.146c-0.001,0-0.001,0-0.002,0C16.381,16,16,16.381,16,16.852
	c0,0.13,0.035,0.251,0.087,0.362l7.124,14.246c0.007,0.021,0.017,0.035,0.025,0.054l0.015,0.029h0.005C23.4,31.812,23.674,32,24,32
	s0.6-0.188,0.743-0.457h0.005l0.016-0.029c0.008-0.019,0.019-0.033,0.024-0.054l7.124-14.246C31.965,17.103,32,16.982,32,16.852
	C32,16.381,31.619,16,31.148,16z"/>
<rect y="12" fill="#C4C4C4" width="1" height="24"/>
</svg>
