<?xml version="1.0" encoding="utf-8"?>
<!-- Generator: Adobe Illustrator 16.0.0, SVG Export Plug-In . SVG Version: 6.00 Build 0)  -->
<!DOCTYPE svg PUBLIC "-//W3C//DTD SVG 1.1//EN" "http://www.w3.org/Graphics/SVG/1.1/DTD/svg11.dtd">
<svg version="1.1" id="Layer_1" xmlns="http://www.w3.org/2000/svg" xmlns:xlink="http://www.w3.org/1999/xlink" x="0px" y="0px"
	 width="427px" height="427px" viewBox="0 0 427 427" enable-background="new 0 0 427 427" xml:space="preserve">
<g>
	<path fill="#FFFFFF" d="M272.5,154.703c-5.523,0-10,4.477-10,10v189c0,5.52,4.477,10,10,10s10-4.48,10-10v-189
		C282.5,159.18,278.024,154.703,272.5,154.703z"/>
	<path fill="#FFFFFF" d="M154.5,154.703c-5.523,0-10,4.477-10,10v189c0,5.52,4.477,10,10,10s10-4.48,10-10v-189
		C164.5,159.18,160.024,154.703,154.5,154.703z"/>
	<path fill="#FFFFFF" d="M68.5,127.121V373.5c0,14.562,5.34,28.238,14.668,38.051c9.285,9.84,22.207,15.426,35.73,15.449h189.203
		c13.527-0.023,26.449-5.609,35.73-15.449c9.328-9.812,14.668-23.488,14.668-38.051V127.121
		c18.543-4.922,30.559-22.836,28.078-41.863C384.094,66.234,367.887,52.004,348.699,52H297.5V39.5
		c0.059-10.512-4.098-20.605-11.539-28.031C278.52,4.047,268.41-0.086,257.899,0h-88.797c-10.512-0.086-20.621,4.047-28.062,11.469
		c-7.441,7.426-11.598,17.52-11.539,28.031V52H78.301c-19.188,0.004-35.395,14.234-37.879,33.258
		C37.942,104.285,49.957,122.199,68.5,127.121z M308.102,407H118.899c-17.098,0-30.398-14.688-30.398-33.5V128h250v245.5
		C338.5,392.312,325.199,407,308.102,407z M149.5,39.5c-0.066-5.207,1.98-10.219,5.676-13.895c3.691-3.676,8.715-5.695,13.926-5.605
		h88.797c5.211-0.09,10.234,1.93,13.926,5.605c3.695,3.672,5.742,8.688,5.676,13.895V52h-128V39.5z M78.301,72h270.398
		c9.941,0,18,8.059,18,18s-8.059,18-18,18H78.301c-9.941,0-18-8.059-18-18S68.36,72,78.301,72z"/>
	<path fill="#FFFFFF" d="M213.5,154.703c-5.523,0-10,4.477-10,10v189c0,5.52,4.477,10,10,10s10-4.48,10-10v-189
		C223.5,159.18,219.024,154.703,213.5,154.703z"/>
</g>
</svg>
